<mxfile host="app.diagrams.net" agent="Mozilla/5.0 (Windows NT 10.0; Win64; x64) AppleWebKit/537.36 (KHTML, like Gecko) Chrome/135.0.0.0 Safari/537.36 Edg/135.0.0.0" version="26.2.9">
  <diagram name="Page-1" id="3vQ4MGwzacZrz8IVDs3b">
    <mxGraphModel dx="1594" dy="1025" grid="1" gridSize="10" guides="1" tooltips="1" connect="1" arrows="1" fold="1" page="1" pageScale="1" pageWidth="850" pageHeight="1100" math="0" shadow="0">
      <root>
        <mxCell id="0" />
        <mxCell id="1" parent="0" />
        <mxCell id="mjpt9ou2h9_-4IHQo3Af-37" value="" style="rounded=0;whiteSpace=wrap;html=1;" vertex="1" parent="1">
          <mxGeometry x="30" y="10" width="820" height="870" as="geometry" />
        </mxCell>
        <mxCell id="mjpt9ou2h9_-4IHQo3Af-2" value="" style="rounded=0;whiteSpace=wrap;html=1;" vertex="1" parent="1">
          <mxGeometry x="80" y="80" width="720" height="490" as="geometry" />
        </mxCell>
        <mxCell id="mjpt9ou2h9_-4IHQo3Af-5" value="" style="rounded=0;whiteSpace=wrap;html=1;" vertex="1" parent="1">
          <mxGeometry x="100" y="115" width="680" height="435" as="geometry" />
        </mxCell>
        <mxCell id="mjpt9ou2h9_-4IHQo3Af-11" value="" style="rounded=0;whiteSpace=wrap;html=1;" vertex="1" parent="1">
          <mxGeometry x="120" y="210" width="620" height="320" as="geometry" />
        </mxCell>
        <mxCell id="mjpt9ou2h9_-4IHQo3Af-10" value="" style="rounded=0;whiteSpace=wrap;html=1;" vertex="1" parent="1">
          <mxGeometry x="360" y="270" width="350" height="240" as="geometry" />
        </mxCell>
        <mxCell id="mjpt9ou2h9_-4IHQo3Af-3" value="&lt;font style=&quot;font-size: 16px;&quot;&gt;Monitor&lt;/font&gt;" style="rounded=0;whiteSpace=wrap;html=1;" vertex="1" parent="1">
          <mxGeometry x="400" y="430" width="120" height="60" as="geometry" />
        </mxCell>
        <mxCell id="mjpt9ou2h9_-4IHQo3Af-4" value="&lt;font style=&quot;font-size: 16px;&quot;&gt;Driver&lt;/font&gt;" style="rounded=0;whiteSpace=wrap;html=1;" vertex="1" parent="1">
          <mxGeometry x="560" y="430" width="120" height="60" as="geometry" />
        </mxCell>
        <mxCell id="mjpt9ou2h9_-4IHQo3Af-6" value="&lt;font style=&quot;font-size: 16px;&quot;&gt;Scoreboard&lt;/font&gt;" style="rounded=0;whiteSpace=wrap;html=1;" vertex="1" parent="1">
          <mxGeometry x="180" y="430" width="120" height="60" as="geometry" />
        </mxCell>
        <mxCell id="mjpt9ou2h9_-4IHQo3Af-7" value="&lt;font style=&quot;font-size: 16px;&quot;&gt;Interface&lt;/font&gt;" style="rounded=0;whiteSpace=wrap;html=1;" vertex="1" parent="1">
          <mxGeometry x="360" y="600" width="350" height="80" as="geometry" />
        </mxCell>
        <mxCell id="mjpt9ou2h9_-4IHQo3Af-8" value="&lt;font style=&quot;font-size: 21px;&quot;&gt;DUT&lt;/font&gt;" style="rounded=0;whiteSpace=wrap;html=1;" vertex="1" parent="1">
          <mxGeometry x="320" y="720" width="440" height="120" as="geometry" />
        </mxCell>
        <mxCell id="mjpt9ou2h9_-4IHQo3Af-20" value="" style="edgeStyle=orthogonalEdgeStyle;rounded=0;orthogonalLoop=1;jettySize=auto;html=1;" edge="1" parent="1" source="mjpt9ou2h9_-4IHQo3Af-12" target="mjpt9ou2h9_-4IHQo3Af-19">
          <mxGeometry relative="1" as="geometry" />
        </mxCell>
        <mxCell id="mjpt9ou2h9_-4IHQo3Af-12" value="&lt;font style=&quot;font-size: 16px;&quot;&gt;Sequence Item&lt;/font&gt;" style="rounded=0;whiteSpace=wrap;html=1;" vertex="1" parent="1">
          <mxGeometry x="390" y="130" width="120" height="60" as="geometry" />
        </mxCell>
        <mxCell id="mjpt9ou2h9_-4IHQo3Af-13" value="&lt;font style=&quot;font-size: 16px;&quot;&gt;Sequencer&lt;/font&gt;" style="rounded=0;whiteSpace=wrap;html=1;" vertex="1" parent="1">
          <mxGeometry x="560" y="300" width="120" height="60" as="geometry" />
        </mxCell>
        <mxCell id="mjpt9ou2h9_-4IHQo3Af-14" value="Testbench Top" style="text;html=1;align=center;verticalAlign=middle;whiteSpace=wrap;rounded=0;fontSize=16;" vertex="1" parent="1">
          <mxGeometry x="80" y="80" width="160" height="30" as="geometry" />
        </mxCell>
        <mxCell id="mjpt9ou2h9_-4IHQo3Af-15" value="Test" style="text;html=1;align=center;verticalAlign=middle;whiteSpace=wrap;rounded=0;fontSize=16;" vertex="1" parent="1">
          <mxGeometry x="115" y="130" width="90" height="30" as="geometry" />
        </mxCell>
        <mxCell id="mjpt9ou2h9_-4IHQo3Af-16" value="Environment" style="text;html=1;align=center;verticalAlign=middle;whiteSpace=wrap;rounded=0;fontSize=16;" vertex="1" parent="1">
          <mxGeometry x="130" y="220" width="120" height="30" as="geometry" />
        </mxCell>
        <mxCell id="mjpt9ou2h9_-4IHQo3Af-18" value="Agent" style="text;html=1;align=center;verticalAlign=middle;whiteSpace=wrap;rounded=0;fontSize=16;" vertex="1" parent="1">
          <mxGeometry x="370" y="280" width="120" height="30" as="geometry" />
        </mxCell>
        <mxCell id="mjpt9ou2h9_-4IHQo3Af-19" value="&lt;font style=&quot;font-size: 16px;&quot;&gt;Sequence&lt;/font&gt;" style="rounded=0;whiteSpace=wrap;html=1;" vertex="1" parent="1">
          <mxGeometry x="560" y="130" width="120" height="60" as="geometry" />
        </mxCell>
        <mxCell id="mjpt9ou2h9_-4IHQo3Af-24" value="" style="edgeStyle=orthogonalEdgeStyle;rounded=0;orthogonalLoop=1;jettySize=auto;html=1;exitX=0.5;exitY=1;exitDx=0;exitDy=0;entryX=0.5;entryY=0;entryDx=0;entryDy=0;" edge="1" parent="1" source="mjpt9ou2h9_-4IHQo3Af-19" target="mjpt9ou2h9_-4IHQo3Af-13">
          <mxGeometry relative="1" as="geometry">
            <mxPoint x="520" y="170" as="sourcePoint" />
            <mxPoint x="580" y="170" as="targetPoint" />
          </mxGeometry>
        </mxCell>
        <mxCell id="mjpt9ou2h9_-4IHQo3Af-25" value="" style="whiteSpace=wrap;html=1;aspect=fixed;" vertex="1" parent="1">
          <mxGeometry x="610" y="410" width="20" height="20" as="geometry" />
        </mxCell>
        <mxCell id="mjpt9ou2h9_-4IHQo3Af-31" value="" style="edgeStyle=orthogonalEdgeStyle;rounded=0;orthogonalLoop=1;jettySize=auto;html=1;" edge="1" parent="1" source="mjpt9ou2h9_-4IHQo3Af-26" target="mjpt9ou2h9_-4IHQo3Af-30">
          <mxGeometry relative="1" as="geometry" />
        </mxCell>
        <mxCell id="mjpt9ou2h9_-4IHQo3Af-26" value="" style="rhombus;whiteSpace=wrap;html=1;" vertex="1" parent="1">
          <mxGeometry x="380" y="447.5" width="20" height="22.5" as="geometry" />
        </mxCell>
        <mxCell id="mjpt9ou2h9_-4IHQo3Af-32" value="" style="edgeStyle=orthogonalEdgeStyle;rounded=0;orthogonalLoop=1;jettySize=auto;html=1;" edge="1" parent="1" source="mjpt9ou2h9_-4IHQo3Af-29" target="mjpt9ou2h9_-4IHQo3Af-25">
          <mxGeometry relative="1" as="geometry" />
        </mxCell>
        <mxCell id="mjpt9ou2h9_-4IHQo3Af-29" value="" style="ellipse;whiteSpace=wrap;html=1;aspect=fixed;" vertex="1" parent="1">
          <mxGeometry x="610" y="360" width="20" height="20" as="geometry" />
        </mxCell>
        <mxCell id="mjpt9ou2h9_-4IHQo3Af-30" value="" style="ellipse;whiteSpace=wrap;html=1;aspect=fixed;" vertex="1" parent="1">
          <mxGeometry x="300" y="448.75" width="20" height="20" as="geometry" />
        </mxCell>
        <mxCell id="mjpt9ou2h9_-4IHQo3Af-33" value="" style="endArrow=classic;html=1;rounded=0;exitX=0.5;exitY=1;exitDx=0;exitDy=0;entryX=0.743;entryY=-0.022;entryDx=0;entryDy=0;entryPerimeter=0;" edge="1" parent="1" target="mjpt9ou2h9_-4IHQo3Af-7">
          <mxGeometry width="50" height="50" relative="1" as="geometry">
            <mxPoint x="620.0799999999999" y="490" as="sourcePoint" />
            <mxPoint x="619.78" y="610" as="targetPoint" />
          </mxGeometry>
        </mxCell>
        <mxCell id="mjpt9ou2h9_-4IHQo3Af-34" value="" style="endArrow=classic;html=1;rounded=0;exitX=0.75;exitY=1;exitDx=0;exitDy=0;" edge="1" parent="1">
          <mxGeometry width="50" height="50" relative="1" as="geometry">
            <mxPoint x="619.78" y="682.04" as="sourcePoint" />
            <mxPoint x="619.78" y="720" as="targetPoint" />
          </mxGeometry>
        </mxCell>
        <mxCell id="mjpt9ou2h9_-4IHQo3Af-35" value="" style="endArrow=classic;html=1;rounded=0;exitX=0.5;exitY=1;exitDx=0;exitDy=0;entryX=0.5;entryY=1;entryDx=0;entryDy=0;" edge="1" parent="1" target="mjpt9ou2h9_-4IHQo3Af-3">
          <mxGeometry width="50" height="50" relative="1" as="geometry">
            <mxPoint x="459.69999999999993" y="600" as="sourcePoint" />
            <mxPoint x="459.62" y="708" as="targetPoint" />
          </mxGeometry>
        </mxCell>
        <mxCell id="mjpt9ou2h9_-4IHQo3Af-36" value="" style="endArrow=classic;html=1;rounded=0;entryX=0.278;entryY=1.019;entryDx=0;entryDy=0;entryPerimeter=0;exitX=0.312;exitY=0.008;exitDx=0;exitDy=0;exitPerimeter=0;" edge="1" parent="1" source="mjpt9ou2h9_-4IHQo3Af-8" target="mjpt9ou2h9_-4IHQo3Af-7">
          <mxGeometry width="50" height="50" relative="1" as="geometry">
            <mxPoint x="459.78" y="680" as="sourcePoint" />
            <mxPoint x="459.78" y="717.96" as="targetPoint" />
          </mxGeometry>
        </mxCell>
      </root>
    </mxGraphModel>
  </diagram>
</mxfile>
